<?xml version="1.0" encoding="UTF-8" standalone="no"?>
<svg
   width="20px"
   height="20px"
   viewBox="0 0 20 20"
   version="1.1"
   id="svg11"
   sodipodi:docname="LAYERS.svg"
   inkscape:export-filename="C:\Users\doall\GimelStudio\assets\icons_source\LAYERS.png"
   inkscape:export-xdpi="96"
   inkscape:export-ydpi="96"
   inkscape:version="1.1-alpha (65d249f, 2021-01-17)"
   xmlns:inkscape="http://www.inkscape.org/namespaces/inkscape"
   xmlns:sodipodi="http://sodipodi.sourceforge.net/DTD/sodipodi-0.dtd"
   xmlns="http://www.w3.org/2000/svg"
   xmlns:svg="http://www.w3.org/2000/svg">
  <sodipodi:namedview
     id="namedview13"
     pagecolor="#ffffff"
     bordercolor="#666666"
     borderopacity="1.0"
     objecttolerance="10.0"
     gridtolerance="10.0"
     guidetolerance="10.0"
     inkscape:pageshadow="2"
     inkscape:pageopacity="0.0"
     inkscape:pagecheckerboard="0"
     showgrid="false"
     inkscape:zoom="28.708535"
     inkscape:cx="9.8576956"
     inkscape:cy="10.014443"
     inkscape:window-width="1920"
     inkscape:window-height="1001"
     inkscape:window-x="-9"
     inkscape:window-y="-9"
     inkscape:window-maximized="1"
     inkscape:current-layer="svg11" />
  <defs
     id="defs5">
    <filter
       id="filter_1"
       x="0"
       y="0"
       width="1"
       height="1">
      <feColorMatrix
         in="SourceGraphic"
         type="matrix"
         values="0 0 0 0 0.8980392 0 0 0 0 0.8980392 0 0 0 0 0.8980392 0 0 0 1 0"
         id="feColorMatrix2" />
    </filter>
  </defs>
  <g
     id="svg"
     filter="url(#filter_1)">
    <path
       d="M0 0L20 0L20 20L0 20L0 0Z"
       id="Shape"
       fill="none"
       fill-rule="evenodd"
       stroke="none" />
    <path
       d="M14.676 11.6948L15.6776 12.2957C15.8033 12.3709 15.8803 12.5067 15.8803 12.6532C15.8803 12.7997 15.8033 12.9354 15.6776 13.0107L8.36931 17.3957C8.1052 17.5543 7.77509 17.5543 7.51098 17.3957L0.202646 13.0107C0.0769436 12.9354 0 12.7997 0 12.6532C0 12.5067 0.0769436 12.3709 0.202646 12.2957L1.20431 11.6948L7.94015 15.7365L14.676 11.6948L14.676 11.6948ZM14.676 7.77818L15.6776 8.37901C15.8033 8.45426 15.8803 8.59 15.8803 8.73651C15.8803 8.88301 15.8033 9.01876 15.6776 9.09401L7.94015 13.7365L0.202648 9.09401C0.0769455 9.01876 1.90735e-06 8.88301 1.90735e-06 8.73651C1.90735e-06 8.59 0.0769455 8.45426 0.202648 8.37901L1.20431 7.77818L7.94015 11.8198L14.676 7.77818L14.676 7.77818ZM8.36848 0.119008L15.6776 4.50401C15.8033 4.57926 15.8803 4.715 15.8803 4.86151C15.8803 5.00801 15.8033 5.14376 15.6776 5.21901L7.94015 9.86151L0.202648 5.21901C0.0769457 5.14376 1.90735e-06 5.00801 1.90735e-06 4.86151C1.90735e-06 4.715 0.0769457 4.57926 0.202648 4.50401L7.51098 0.119008C7.77509 -0.0396695 8.1052 -0.0396694 8.36931 0.119008L8.36848 0.119008ZM7.94015 1.80484L2.84598 4.86151L7.94015 7.91817L13.0343 4.86151L7.94015 1.80484L7.94015 1.80484Z"
       transform="translate(2.0598526 0.97182465)"
       id="path8"
       fill="#000000"
       fill-rule="evenodd"
       stroke="none" />
  </g>
</svg>
