<?xml version="1.0" encoding="UTF-8" standalone="no"?>
<svg
   width="20"
   height="20"
   viewBox="0 0 20 20"
   version="1.1"
   id="svg11"
   sodipodi:docname="NODEGRAPH.svg"
   inkscape:version="1.1-alpha (65d249f, 2021-01-17)"
   inkscape:export-filename="C:\Users\doall\GimelStudio\assets\icons_source\NODEGRAPH.png"
   inkscape:export-xdpi="96"
   inkscape:export-ydpi="96"
   xmlns:inkscape="http://www.inkscape.org/namespaces/inkscape"
   xmlns:sodipodi="http://sodipodi.sourceforge.net/DTD/sodipodi-0.dtd"
   xmlns="http://www.w3.org/2000/svg"
   xmlns:svg="http://www.w3.org/2000/svg">
  <sodipodi:namedview
     id="namedview13"
     pagecolor="#ffffff"
     bordercolor="#666666"
     borderopacity="1.0"
     objecttolerance="10.0"
     gridtolerance="10.0"
     guidetolerance="10.0"
     inkscape:pageshadow="2"
     inkscape:pageopacity="0.0"
     inkscape:pagecheckerboard="0"
     showgrid="false"
     inkscape:zoom="27.066667"
     inkscape:cx="9.0147782"
     inkscape:cy="8.5899014"
     inkscape:window-width="1920"
     inkscape:window-height="1001"
     inkscape:window-x="-9"
     inkscape:window-y="-9"
     inkscape:window-maximized="1"
     inkscape:current-layer="svg11" />
  <defs
     id="defs5">
    <filter
       id="filter_1"
       x="0"
       y="0"
       width="1"
       height="1">
      <feColorMatrix
         in="SourceGraphic"
         type="matrix"
         values="0 0 0 0 0.8980392 0 0 0 0 0.8980392 0 0 0 0 0.8980392 0 0 0 1 0"
         id="feColorMatrix2" />
    </filter>
  </defs>
  <g
     id="svg-14"
     filter="url(#filter_1)"
     transform="scale(1.3325123)">
    <path
       d="M 0,0 H 15 V 15 H 0 Z"
       id="Shape"
       fill="none"
       fill-rule="evenodd"
       stroke="none" />
    <path
       d="M 4.375,0 C 4.72,0 5,0.28 5,0.625 v 2.5 C 5,3.47 4.72,3.75 4.375,3.75 H 3.125 V 5 H 6.25 V 4.375 C 6.25,4.03 6.53,3.75 6.875,3.75 h 3.75 c 0.345,0 0.625,0.28 0.625,0.625 v 2.5 C 11.25,7.22 10.97,7.5 10.625,7.5 H 6.875 C 6.53,7.5 6.25,7.22 6.25,6.875 V 6.25 H 3.125 V 10 H 6.25 V 9.375 C 6.25,9.03 6.53,8.75 6.875,8.75 h 3.75 c 0.345,0 0.625,0.28 0.625,0.625 v 2.5 c 0,0.345 -0.28,0.625 -0.625,0.625 H 6.875 C 6.53,12.5 6.25,12.22 6.25,11.875 V 11.25 H 2.5 c -0.345,0 -0.625,-0.28 -0.625,-0.625 V 3.75 H 0.625 C 0.28,3.75 0,3.47 0,3.125 v -2.5 C 0,0.28 0.28,0 0.625,0 Z M 10,10 H 7.5 v 1.25 H 10 Z M 10,5 H 7.5 V 6.25 H 10 Z M 3.75,1.25 H 1.25 V 2.5 h 2.5 z"
       transform="translate(1.875,1.25)"
       id="path8"
       fill="#000000"
       fill-rule="evenodd"
       stroke="none" />
  </g>
</svg>
