<?xml version="1.0" encoding="UTF-8" standalone="no"?>
<svg
   width="20px"
   height="20px"
   viewBox="0 0 20 20"
   version="1.1"
   id="svg11"
   sodipodi:docname="PROPERTIES.svg"
   inkscape:export-filename="C:\Users\doall\GimelStudio\assets\icons_source\PROPERTIES.png"
   inkscape:export-xdpi="96"
   inkscape:export-ydpi="96"
   inkscape:version="1.1-alpha (65d249f, 2021-01-17)"
   xmlns:inkscape="http://www.inkscape.org/namespaces/inkscape"
   xmlns:sodipodi="http://sodipodi.sourceforge.net/DTD/sodipodi-0.dtd"
   xmlns="http://www.w3.org/2000/svg"
   xmlns:svg="http://www.w3.org/2000/svg">
  <sodipodi:namedview
     id="namedview13"
     pagecolor="#ffffff"
     bordercolor="#666666"
     borderopacity="1.0"
     objecttolerance="10.0"
     gridtolerance="10.0"
     guidetolerance="10.0"
     inkscape:pageshadow="2"
     inkscape:pageopacity="0.0"
     inkscape:pagecheckerboard="0"
     showgrid="false"
     inkscape:zoom="28.708535"
     inkscape:cx="9.9273612"
     inkscape:cy="10.014443"
     inkscape:window-width="1920"
     inkscape:window-height="1001"
     inkscape:window-x="-9"
     inkscape:window-y="-9"
     inkscape:window-maximized="1"
     inkscape:current-layer="svg11" />
  <defs
     id="defs5">
    <filter
       id="filter_1"
       x="0"
       y="0"
       width="1"
       height="1">
      <feColorMatrix
         in="SourceGraphic"
         type="matrix"
         values="0 0 0 0 0.8980392 0 0 0 0 0.8980392 0 0 0 0 0.8980392 0 0 0 1 0"
         id="feColorMatrix2" />
    </filter>
  </defs>
  <g
     id="svg-15"
     filter="url(#filter_1)">
    <path
       d="M0 0L20 0L20 20L0 20L0 0Z"
       id="Shape"
       fill="none"
       fill-rule="evenodd"
       stroke="none" />
    <path
       d="M3.475 13.3354C3.82783 12.3354 4.77294 11.6667 5.83333 11.6667C6.89372 11.6667 7.83883 12.3354 8.19167 13.3354L16.6667 13.3354L16.6667 15.002L8.19167 15.002C7.83883 16.002 6.89372 16.6707 5.83333 16.6707C4.77294 16.6707 3.82783 16.002 3.475 15.002L0 15.002L0 13.3354L3.475 13.3354L3.475 13.3354ZM8.475 7.50204C8.82783 6.50208 9.77295 5.83334 10.8333 5.83334C11.8937 5.83334 12.8388 6.50208 13.1917 7.50204L16.6667 7.50204L16.6667 9.16871L13.1917 9.16871C12.8388 10.1687 11.8937 10.8374 10.8333 10.8374C9.77294 10.8374 8.82783 10.1687 8.475 9.16871L0 9.16871L0 7.50204L8.475 7.50204L8.475 7.50204ZM3.475 1.66871C3.82783 0.668741 4.77294 0 5.83333 0C6.89372 1.98682e-07 7.83883 0.668742 8.19167 1.66871L16.6667 1.66871L16.6667 3.33538L8.19167 3.33538C7.83883 4.33534 6.89372 5.00408 5.83333 5.00408C4.77294 5.00408 3.82783 4.33534 3.475 3.33537L0 3.33538L0 1.66871L3.475 1.66871L3.475 1.66871Z"
       transform="translate(1.666626 1.6646194)"
       id="path8"
       fill="#000000"
       fill-rule="evenodd"
       stroke="none" />
  </g>
</svg>
